name C:\Users\u0150099\Documents\master_thesis\3dpredictsim\Results\debug\Fal_s1_mtj_sc_cspx10_oy_MTPm_k1_d01_MTJm_nl_MG_exp_table_d01_PF_Gefen2002_ls146_PIM_w1e+03_w1e+04_ig21.mot
datacolumns 128
datarows 4
range 0.00000000 0.03158950
endheader
time	pelvis_tilt	pelvis_list	pelvis_rotation	pelvis_tx	pelvis_ty	pelvis_tz	hip_flexion_l	hip_adduction_l	hip_rotation_l	hip_flexion_r	hip_adduction_r	hip_rotation_r	knee_angle_l	knee_angle_r	ankle_angle_l	ankle_angle_r	subtalar_angle_l	subtalar_angle_r	mtj_angle_l	mtj_angle_r	mtp_angle_l	mtp_angle_r	lumbar_extension	lumbar_bending	lumbar_rotation	arm_flex_l	arm_add_l	arm_rot_l	arm_flex_r	arm_add_r	arm_rot_r	elbow_flex_l	elbow_flex_r	pro_sup_l	pro_sup_r	glut_med1_l/activation	glut_med2_l/activation	glut_med3_l/activation	glut_min1_l/activation	glut_min2_l/activation	glut_min3_l/activation	semimem_l/activation	semiten_l/activation	bifemlh_l/activation	bifemsh_l/activation	sar_l/activation	add_long_l/activation	add_brev_l/activation	add_mag1_l/activation	add_mag2_l/activation	add_mag3_l/activation	tfl_l/activation	pect_l/activation	grac_l/activation	glut_max1_l/activation	glut_max2_l/activation	glut_max3_l/activation	iliacus_l/activation	psoas_l/activation	quad_fem_l/activation	gem_l/activation	peri_l/activation	rect_fem_l/activation	vas_med_l/activation	vas_int_l/activation	vas_lat_l/activation	med_gas_l/activation	lat_gas_l/activation	soleus_l/activation	tib_post_l/activation	flex_dig_l/activation	flex_hal_l/activation	tib_ant_l/activation	per_brev_l/activation	per_long_l/activation	per_tert_l/activation	ext_dig_l/activation	ext_hal_l/activation	ercspn_l/activation	intobl_l/activation	extobl_l/activation	glut_med1_r/activation	glut_med2_r/activation	glut_med3_r/activation	glut_min1_r/activation	glut_min2_r/activation	glut_min3_r/activation	semimem_r/activation	semiten_r/activation	bifemlh_r/activation	bifemsh_r/activation	sar_r/activation	add_long_r/activation	add_brev_r/activation	add_mag1_r/activation	add_mag2_r/activation	add_mag3_r/activation	tfl_r/activation	pect_r/activation	grac_r/activation	glut_max1_r/activation	glut_max2_r/activation	glut_max3_r/activation	iliacus_r/activation	psoas_r/activation	quad_fem_r/activation	gem_r/activation	peri_r/activation	rect_fem_r/activation	vas_med_r/activation	vas_int_r/activation	vas_lat_r/activation	med_gas_r/activation	lat_gas_r/activation	soleus_r/activation	tib_post_r/activation	flex_dig_r/activation	flex_hal_r/activation	tib_ant_r/activation	per_brev_r/activation	per_long_r/activation	per_tert_r/activation	ext_dig_r/activation	ext_hal_r/activation	ercspn_r/activation	intobl_r/activation	extobl_r/activation	
          0.00000000	         -2.93017319	         -1.16261249	          3.37082825	          0.00000000	          0.91451030	         -0.00293709	        -15.87398915	          1.59526273	          8.77859215	         27.47386647	          2.82874055	         -0.70116454	         -9.29689534	         -8.00547880	         10.34412266	         13.24066619	          7.96820477	         -1.30989317	         -5.32945967	        -11.90177524	         13.66733909	         -9.07198197	         -2.82664055	          0.10782177	         -1.80988149	          4.07844426	        -13.80476651	         19.35816937	         -7.30601105	        -13.55717152	          4.29143840	         31.02564133	         27.61786659	         86.51662706	         86.51662706	          0.37611008	          0.11912506	          0.08467418	          0.44509728	          0.27489406	          0.13192718	          0.05001137	          0.05000177	          0.05000118	          0.07957809	          0.11222552	          0.05000288	          0.05000259	          0.05000384	          0.05001056	          0.05000667	          0.55344483	          0.05001516	          0.05000400	          0.05001015	          0.05000656	          0.05000585	          0.27752986	          0.79211365	          0.05000074	          0.05000329	          0.05876523	          0.26951557	          0.05000761	          0.05000742	          0.05000656	          0.31252886	          0.39087558	          0.40377624	          0.32624411	          0.18706148	          0.32486567	          0.05000017	          0.05000238	          0.12154323	          0.05000333	          0.05000090	          0.08129818	          0.05000014	          0.05000033	          0.05000025	          0.05000217	          0.05088160	          0.05001289	          0.05525272	          0.05004536	          0.05001057	          0.22708735	          0.08005578	          0.24023241	          0.05001966	          0.05000415	          0.13934531	          0.13280055	          0.15210511	          0.13206320	          0.11298049	          0.05000340	          0.05001643	          0.12616456	          0.05623885	          0.05845604	          0.07939163	          0.05000213	          0.05000320	          0.11241198	          0.05001877	          0.05000249	          0.05000137	          0.05001970	          0.05001853	          0.05000920	          0.05000473	          0.05000606	          0.05238645	          0.05685883	          0.05877755	          0.05877565	          0.32420232	          0.10955548	          0.16243588	          0.18051798	          0.53643886	          0.05553178	          0.06569631	          0.09863694	          0.11222190	
          0.01052983	         -2.92869214	         -1.22500818	          3.60942222	          0.01654406	          0.91447070	         -0.00269647	        -15.93777448	          1.36749670	          8.75726945	         26.99767204	          3.16091234	         -0.65263856	        -10.81504079	         -7.86914300	          9.60450846	         13.16252033	          8.78662054	         -1.36269934	         -6.51391130	        -12.16437457	         16.85996951	         -9.99658394	         -2.64510430	          0.26185526	         -1.90075005	          3.77155508	        -13.75375781	         19.37543500	         -8.00847085	        -13.49405442	          3.82615885	         31.99428257	         27.18604406	         86.51662706	         86.51662706	          0.32429987	          0.10134030	          0.07203287	          0.37864782	          0.23385391	          0.11223119	          0.05000780	          0.05000100	          0.05000078	          0.06769758	          0.09547152	          0.05000066	          0.05000060	          0.05000120	          0.05000410	          0.05000333	          0.51514742	          0.05000296	          0.05000159	          0.05001738	          0.05000798	          0.05000398	          0.23609588	          0.76302393	          0.05000055	          0.05000165	          0.05000050	          0.23704973	          0.05876957	          0.05878817	          0.06123526	          0.26586954	          0.33251980	          0.34905446	          0.27753747	          0.15915481	          0.27636659	          0.05000008	          0.05877468	          0.10339734	          0.05000030	          0.05000012	          0.06916081	          0.05000008	          0.05000014	          0.05000023	          0.11587263	          0.05000116	          0.05000755	          0.05000103	          0.05000129	          0.05000677	          0.20840255	          0.06909013	          0.21522227	          0.06909037	          0.05000297	          0.11855249	          0.15442779	          0.16160934	          0.13881522	          0.14336823	          0.05000524	          0.05878104	          0.14702036	          0.05491529	          0.08077352	          0.11736571	          0.05000083	          0.05000082	          0.24350985	          0.05001916	          0.05052726	          0.05000039	          0.05000301	          0.05000293	          0.05000294	          0.05001016	          0.05000490	          0.05169181	          0.06350371	          0.05000383	          0.05000447	          0.32677956	          0.12011678	          0.17474908	          0.15358589	          0.56950030	          0.06908952	          0.05877483	          0.08391099	          0.09546769	
          0.02105967	         -2.92427507	         -1.29740639	          3.83238113	          0.03334796	          0.91444935	         -0.00243465	        -15.90385405	          1.12514187	          8.71527130	         26.53503828	          3.49177156	         -0.57717473	        -12.46167668	         -8.28544629	          8.63428133	         12.71148525	          9.66254057	         -1.39165824	         -7.72709922	        -12.33829162	         20.28440781	        -10.82205679	         -2.44834801	          0.43136804	         -1.98532027	          3.38163152	        -13.69465938	         19.27096551	         -8.71418759	        -13.45636863	          3.58032696	         33.00195899	         26.72542921	         86.51662706	         86.51662706	          0.27588348	          0.08621072	          0.06236793	          0.32211756	          0.19894070	          0.09547574	          0.05001925	          0.05000221	          0.05000229	          0.05759101	          0.08121851	          0.07948517	          0.06070178	          0.05000864	          0.05001495	          0.05000495	          0.46201601	          0.07036583	          0.05001476	          0.05000717	          0.05000475	          0.05000535	          0.20084778	          0.64910867	          0.05000166	          0.05991157	          0.05877600	          0.20165948	          0.05001039	          0.12860997	          0.13018219	          0.22617625	          0.28287593	          0.29694198	          0.23610229	          0.13539420	          0.23510654	          0.05000033	          0.05000020	          0.08796058	          0.05000088	          0.05000042	          0.05883561	          0.05043666	          0.06908972	          0.05519281	          0.09857378	          0.05004065	          0.05000272	          0.05877250	          0.05798409	          0.05000393	          0.17728918	          0.05877563	          0.18309072	          0.05877647	          0.06801059	          0.10085459	          0.13137286	          0.33781137	          0.11809389	          0.16215290	          0.05000134	          0.05001244	          0.12507260	          0.05873967	          0.06871544	          0.12464069	          0.05482183	          0.06908861	          0.55552495	          0.12385312	          0.05000318	          0.06908293	          0.05001846	          0.05001711	          0.05001433	          0.05000021	          0.05000048	          0.05000005	          0.05402316	          0.07715027	          0.08121167	          0.30579879	          0.22335092	          0.17208654	          0.14997543	          0.59179295	          0.05877542	          0.05000012	          0.07138344	          0.08121478	
          0.03158950	         -2.91713989	         -1.39548524	          4.03806516	          0.05034188	          0.91437916	         -0.00217744	        -15.78035596	          0.86079194	          8.64838245	         26.07985249	          3.77045264	         -0.46324681	        -14.20961713	         -9.18087208	          7.39702566	         11.89913278	         10.54841256	         -1.41664049	         -8.88068522	        -12.55058527	         23.81338224	        -11.55192785	         -2.24180169	          0.63135043	         -2.05809071	          2.91857453	        -13.63684302	         19.10069010	         -9.41340344	        -13.45229373	          3.53623715	         34.07119574	         26.23746147	         86.51662706	         86.51662706	          0.23469552	          0.07333990	          0.05305959	          0.27402703	          0.16923985	          0.08122173	          0.05000346	          0.05000068	          0.05000095	          0.05000024	          0.06909335	          0.13540806	          0.25635200	          0.05877731	          0.05876632	          0.13193110	          0.39304279	          0.06906842	          0.05000541	          0.05876100	          0.05876914	          0.05877164	          0.17086209	          0.64700985	          0.05877464	          0.05098197	          0.05000117	          0.17155259	          0.13033375	          0.13191133	          0.12584243	          0.19240902	          0.24064373	          0.25260969	          0.20085317	          0.11518051	          0.20000620	          0.18947419	          0.08027322	          0.07482845	          0.05000035	          0.21975119	          0.05005196	          0.07860551	          0.05877494	          0.05240145	          0.30859287	          0.05000030	          0.29604367	          0.05000055	          0.05000048	          0.05000076	          0.15082259	          0.05000165	          0.15857436	          0.05000306	          0.05877758	          0.08580067	          0.37473082	          0.28738011	          0.26087606	          0.22971738	          0.05000180	          0.06911973	          0.14626463	          0.05000053	          0.16913218	          0.22693835	          0.05877560	          0.05877530	          0.47258768	          0.10536303	          0.11544954	          0.05877285	          0.05763638	          0.06672888	          0.05729077	          0.06190478	          0.06908960	          0.06545981	          0.05000025	          0.06563235	          0.06908749	          0.38907198	          0.19000581	          0.14639522	          0.12758522	          0.67145952	          0.05000053	          0.05000031	          0.06072629	          0.06908976	
